<!-- Generated by IcoMoon.io -->
<svg version="1.1" xmlns="http://www.w3.org/2000/svg" width="1024" height="1024" viewBox="0 0 1024 1024">
<g id="icomoon-ignore">
</g>
<path fill="var(--yellow)" d="M399.998 160c-34.238 0-64.063 19.456-83.007 46.016s-28.991 60.864-28.991 97.985c0 37.12 10.048 71.454 28.991 98.015s48.77 45.984 83.007 45.984c34.241 0 64.066-19.456 83.010-46.017 18.944-26.558 28.991-60.862 28.991-97.982 0-37.122-10.047-71.457-28.991-98.018s-48.77-45.984-83.010-45.984zM512 304.002c0 37.12 10.047 71.454 28.991 98.015s48.8 45.984 83.010 45.984c34.238 0 64.063-19.456 83.007-46.017 18.944-26.558 28.991-60.862 28.991-97.982 0-37.122-10.047-71.457-28.991-98.018s-48.77-45.984-83.007-45.984c-34.241 0-64.066 19.456-83.010 46.016s-28.991 60.864-28.991 97.985zM399.998 224c9.987 0 20.995 4.992 31.042 19.008 9.921 13.984 16.959 36.256 16.959 60.994 0 24.736-7.038 47.038-16.959 60.991-10.047 14.014-21.055 19.007-31.042 19.007-9.984 0-20.992-4.994-31.039-19.007-9.921-13.984-16.959-36.256-16.959-60.991 0-24.737 7.038-47.042 16.959-60.994 10.047-14.016 21.055-19.008 31.039-19.008zM624.002 224c9.981 0 20.989 4.992 31.039 19.008 9.918 13.984 16.959 36.256 16.959 60.994 0 24.736-7.042 47.038-16.959 60.991-10.050 14.014-21.058 19.007-31.039 19.007-9.984 0-20.992-4.994-31.042-19.007-9.918-13.984-16.959-36.256-16.959-60.991 0-24.737 7.042-47.042 16.959-60.994 10.050-14.016 21.058-19.008 31.042-19.008zM240 384c-34.24 0-64.064 19.456-83.008 46.017-18.944 26.558-28.992 60.862-28.992 97.982 0 37.123 10.048 71.457 28.992 98.018s48.768 45.984 83.008 45.984c34.24 0 64.065-19.456 83.009-46.017 18.944-26.558 28.991-60.862 28.991-97.985 0-37.12-10.047-71.454-28.991-98.015s-48.769-45.984-83.009-45.984zM783.998 384c-34.238 0-64.063 19.456-83.007 46.017-18.944 26.558-28.991 60.862-28.991 97.982 0 37.123 10.047 71.457 28.991 98.018s48.77 45.984 83.007 45.984c34.241 0 64.066-19.456 83.010-46.017 18.944-26.558 28.991-60.862 28.991-97.985 0-37.12-10.047-71.454-28.991-98.015s-48.77-45.984-83.010-45.984zM240 448c9.984 0 20.992 4.99 31.040 19.007 9.92 13.984 16.96 36.256 16.96 60.991 0 24.739-7.040 47.041-16.96 60.994-10.048 14.017-21.056 19.007-31.040 19.007s-20.992-4.99-31.040-19.007c-9.92-13.954-16.96-36.256-16.96-60.994 0-24.736 7.040-47.038 16.96-60.991 10.048-14.017 21.056-19.007 31.040-19.007zM783.998 448c9.984 0 20.992 4.99 31.042 19.007 9.918 13.984 16.959 36.256 16.959 60.991 0 24.739-7.042 47.041-16.959 60.994-10.050 14.017-21.058 19.007-31.042 19.007-9.981 0-20.989-4.99-31.039-19.007-9.918-13.984-16.959-36.256-16.959-60.994 0-24.736 7.042-47.038 16.959-60.991 10.050-14.017 21.058-19.007 31.039-19.007zM512 512c-42.656 0-72.415 27.681-87.040 52.001-14.529 24.32-23.489 44.544-32 52.992-4.897 5.024-35.777 16.64-67.966 33.054-16.098 8.225-32.322 19.2-45.985 36-13.76 16.803-23.040 40.002-23.040 66.018 0 61.44 50.56 111.998 112 111.998 27.711 0 56.639-8.96 84.959-16.959 28.449-8.192 59.073-15.104 59.073-15.104s30.624 6.912 59.006 15.041c28.353 7.999 57.281 16.959 84.992 16.959 61.44 0 112.002-50.562 112.002-111.998 0-25.41-9.376-48.643-23.040-64.961-13.601-16.417-29.985-26.561-45.954-35.042-32-16.959-63.455-30.398-68-35.006-7.68-7.584-16.318-28.482-31.039-52.929-14.688-24.543-45.089-52.064-87.968-52.064zM512 576c21.122 0 23.456 5.12 32.961 20.992 9.598 15.839 16.766 42.752 39.999 66.015 26.401 26.242 59.744 32 84.031 44.93 12.162 6.463 21.441 13.342 27.010 19.998 5.536 6.626 7.999 12.674 7.999 24.001 0 26.88-21.122 48.002-48.002 48.002-9.279 0-39.165-7.042-67.006-15.041-27.841-7.903-50.881-16.959-76.993-16.959s-49.152 9.056-76.993 16.959c-27.841 7.999-57.726 15.041-67.006 15.041-26.88 0-48.002-21.122-48.002-48.002 0-12.896 2.69-19.519 7.999-26.049 5.313-6.493 15.104-12.926 27.010-18.974 23.808-12.162 56.958-16.959 83.998-44.002 23.456-23.582 30.497-51.36 40.002-67.039 9.342-15.679 11.583-19.998 32.958-19.998l0.033 0.126z"></path>
</svg>
